<?xml version="1.0" standalone="no"?>
<!DOCTYPE svg PUBLIC "-//W3C//DTD SVG 20010904//EN"
 "http://www.w3.org/TR/2001/REC-SVG-20010904/DTD/svg10.dtd">
<svg version="1.0" xmlns="http://www.w3.org/2000/svg"
 width="313.000000pt" height="313.000000pt" viewBox="0 0 313.000000 313.000000"
 preserveAspectRatio="xMidYMid meet">

<g transform="translate(0.000000,313.000000) scale(0.100000,-0.100000)"
fill="#000000" stroke="none">
<path d="M50 2362 c0 -4 15 -31 33 -61 l32 -54 375 -126 c207 -69 381 -130
388 -134 16 -11 16 -46 0 -52 -7 -3 -169 46 -360 109 -192 63 -348 111 -348
107 1 -3 15 -30 33 -60 l32 -54 235 -76 c129 -42 242 -79 250 -82 9 -4 -5 -12
-36 -23 l-51 -17 -169 54 c-93 30 -170 53 -172 52 -2 -1 13 -29 32 -61 33 -56
37 -60 96 -77 34 -10 61 -20 59 -22 -2 -2 -86 -33 -187 -69 -100 -35 -195 -74
-211 -85 -35 -25 -61 -77 -61 -122 l0 -33 29 28 c22 21 133 66 443 181 228 84
423 158 435 165 33 21 53 64 53 114 0 39 -5 52 -32 80 -30 30 -78 49 -465 179
-238 80 -433 143 -433 139z"/>
<path d="M955 1805 c-16 -12 -217 -91 -445 -174 -236 -87 -425 -162 -439 -174
-28 -26 -51 -76 -51 -112 0 -27 14 -34 23 -10 9 23 61 44 472 195 215 79 402
152 416 162 32 21 61 80 57 112 l-3 24 -30 -23z"/>
<path d="M1280 1745 l0 -55 166 -2 165 -3 -161 -223 c-88 -123 -163 -236 -167
-252 -4 -24 1 -35 25 -60 17 -16 36 -30 44 -29 7 0 105 128 218 284 203 280
205 284 208 339 l3 56 -251 0 -250 0 0 -55z"/>
<path d="M1880 1730 c0 -80 -2 -79 88 -49 l62 21 0 49 0 49 -75 0 -75 0 0 -70z"/>
<path d="M3023 1778 l-63 -20 0 -319 0 -319 75 0 75 0 0 340 c0 266 -3 340
-12 339 -7 -1 -41 -10 -75 -21z"/>
<path d="M2160 1746 l-65 -23 0 -244 c0 -228 1 -246 21 -279 38 -66 116 -98
204 -84 l40 7 0 58 0 59 -29 -6 c-28 -6 -69 9 -83 30 -4 6 -8 62 -8 124 l0
112 60 0 60 0 0 55 0 55 -60 0 -60 0 0 80 c0 44 -3 80 -7 79 -5 0 -37 -11 -73
-23z"/>
<path d="M955 1640 c-20 -22 -72 -43 -544 -216 -352 -129 -374 -141 -386 -213
-7 -45 14 -102 48 -126 25 -17 866 -299 873 -293 6 6 -43 93 -59 106 -7 5
-178 64 -382 132 -203 67 -375 129 -381 137 -11 12 -8 53 3 53 4 0 670 -210
692 -218 9 -3 1 19 -20 56 l-33 62 -116 36 c-63 19 -173 54 -245 76 l-129 41
46 18 47 18 167 -49 c92 -28 169 -49 170 -47 2 2 -11 27 -29 57 -29 48 -39 56
-84 70 -29 8 -54 17 -57 20 -3 3 75 34 174 69 98 35 193 72 210 82 32 20 69
87 70 127 0 27 -11 28 -35 2z"/>
<path d="M1950 1606 l-65 -23 -3 -231 -2 -232 75 0 75 0 0 255 c0 140 -3 255
-7 254 -5 0 -37 -11 -73 -23z"/>
<path d="M2569 1606 c-58 -21 -93 -51 -124 -108 -26 -46 -30 -63 -29 -133 0
-92 21 -144 76 -190 50 -42 96 -58 173 -58 78 -1 142 14 176 41 22 18 22 19 4
65 l-17 46 -40 -20 c-51 -26 -135 -34 -167 -17 -30 16 -58 54 -67 91 l-6 27
161 0 161 0 0 41 c0 66 -21 120 -65 165 -58 61 -151 81 -236 50z m126 -96 c25
-9 58 -66 49 -82 -3 -5 -45 -8 -95 -8 -79 0 -89 2 -89 18 0 24 28 62 54 72 29
12 50 12 81 0z"/>
<path d="M1497 1193 c-18 -27 -37 -54 -41 -60 -6 -10 29 -13 158 -13 l166 0 0
60 0 60 -124 0 -124 0 -35 -47z"/>
</g>
</svg>
